# xmcd CD database file
#
# Track frame offsets:
#	150
#	13893
#	27209
#	42062
#	57305
#	71095
#	85517
#	95394
#	109104
#	123513
#	135603
#	151847
#	168145
#	183552
#	202034
#	214855
#	226352
#	239931
#	255902
#	270035
#
# Disc length: 3791 seconds
#
# Revision: 3
# Processed by: cddbd v1.5.2PL0 Copyright (c) Steve Scherf et al.
# Submitted via: CDex 1.51
#
DISCID=0c0ecd14
DTITLE=Vera MARTINOVA - Vrcholky 2
DYEAR=1997
DGENRE=Country
TTITLE0=Srdcem jsi zustal u koni
TTITLE1=Dala jsem lasku rekam
TTITLE2=Ve dvou se to tahne lip
TTITLE3=Nocni blues
TTITLE4=Kun, co vyhral nejslavnejsi steeplechase
TTITLE5=Posledni rallye
TTITLE6=Vsem pristim dnum
TTITLE7=Jezdec z neznama
TTITLE8=Tentokrat nam neujede vlak
TTITLE9=Ja mam karu
TTITLE10=Ja znam tvy rana
TTITLE11=Pojd me krasne hrat
TTITLE12=Jak se zname
TTITLE13=Prani
TTITLE14=Vrat se na kazdej pad
TTITLE15=Cehy nebo hod
TTITLE16=Zadnej hacek
TTITLE17=Naruc planejch ruzi
TTITLE18=Hadej
TTITLE19=That's all I've got
EXTD=YEAR: 1997
EXTT0=
EXTT1=
EXTT2=
EXTT3=
EXTT4=
EXTT5=
EXTT6=
EXTT7=
EXTT8=
EXTT9=
EXTT10=
EXTT11=
EXTT12=
EXTT13=
EXTT14=
EXTT15=
EXTT16=
EXTT17=
EXTT18=
EXTT19=
PLAYORDER=
